<?xml version="1.0" standalone="no"?>
<!DOCTYPE svg PUBLIC "-//W3C//DTD SVG 20010904//EN"
 "http://www.w3.org/TR/2001/REC-SVG-20010904/DTD/svg10.dtd">
<svg version="1.0" xmlns="http://www.w3.org/2000/svg"
 width="3000.000000pt" height="3000.000000pt" viewBox="0 0 3000.000000 3000.000000"
 preserveAspectRatio="xMidYMid meet">

<g transform="translate(0.000000,3000.000000) scale(0.100000,-0.100000)"
fill="#000000" stroke="none">
<path d="M3505 18880 c-1074 -96 -2023 -801 -2565 -1905 -223 -453 -356 -911
-422 -1455 -32 -254 -32 -786 0 -1040 68 -555 202 -1011 432 -1475 488 -981
1307 -1652 2245 -1840 194 -39 307 -49 535 -49 325 1 549 37 855 138 445 148
838 393 1193 744 642 636 1049 1526 1159 2532 25 230 25 710 0 940 -130 1194
-681 2222 -1527 2847 -400 295 -866 487 -1335 548 -148 19 -436 27 -570 15z
m610 -319 c1040 -179 1917 -999 2318 -2168 159 -462 229 -887 229 -1393 0
-506 -70 -931 -229 -1393 -437 -1274 -1458 -2143 -2575 -2194 l-138 -6 0 134
c0 321 -64 614 -190 874 -155 320 -385 570 -812 882 l-147 108 -1 1233 c0
1167 1 1232 18 1232 13 0 124 -261 522 -1230 l505 -1230 176 0 176 0 505 1227
c363 884 509 1229 521 1231 16 3 17 -79 17 -1227 l0 -1231 180 0 180 0 0 1615
0 1615 -231 -2 -230 -3 -549 -1340 c-445 -1089 -552 -1341 -568 -1343 -16 -3
-33 32 -121 245 -56 136 -303 741 -550 1343 l-448 1095 -231 3 -232 2 -2
-1486 -3 -1487 -110 86 c-573 446 -841 904 -929 1587 -117 905 87 1730 579
2335 91 112 294 310 400 391 366 279 788 450 1258 509 167 21 554 14 712 -14z"/>
<path d="M23880 16704 c-483 -45 -913 -370 -1145 -867 -293 -628 -212 -1414
200 -1942 134 -172 333 -336 510 -420 309 -146 667 -159 978 -35 374 150 679
476 843 902 70 180 124 451 124 619 l0 69 -635 0 -635 0 0 -170 0 -170 431 0
431 0 -7 -37 c-12 -67 -66 -215 -113 -308 -123 -245 -294 -424 -507 -530 -123
-61 -240 -88 -380 -88 -255 0 -478 102 -673 307 -190 200 -317 477 -357 783
-53 400 46 807 269 1104 202 267 468 412 761 412 246 0 458 -94 650 -288 121
-121 228 -286 287 -442 l16 -43 196 0 195 0 -35 103 c-109 314 -312 601 -553
783 -151 114 -353 205 -529 238 -85 16 -251 26 -322 20z"/>
<path d="M27962 16699 c-521 -64 -955 -437 -1166 -1001 -148 -396 -155 -867
-20 -1283 36 -110 131 -307 196 -407 271 -415 674 -650 1118 -651 336 -1 634
122 889 368 342 329 531 794 531 1305 0 505 -189 974 -521 1295 -196 190 -426
313 -666 359 -104 19 -271 27 -361 15z m335 -390 c219 -55 407 -186 559 -388
142 -189 235 -424 269 -678 78 -588 -174 -1166 -615 -1411 -181 -101 -412
-132 -615 -83 -344 83 -636 385 -770 794 -54 169 -70 277 -70 487 0 210 16
318 70 487 70 214 167 375 315 524 248 251 552 346 857 268z"/>
<path d="M9820 15030 l0 -1620 185 0 185 0 0 1230 c0 1165 1 1230 18 1230 13
0 124 -262 522 -1230 l505 -1230 176 0 176 0 504 1228 c439 1067 508 1227 527
1230 l22 3 0 -1230 0 -1231 180 0 180 0 0 1620 0 1620 -233 0 -233 0 -550
-1342 c-514 -1257 -551 -1343 -573 -1343 -23 0 -53 71 -472 1095 -247 602
-494 1206 -550 1343 l-102 247 -233 0 -234 0 0 -1620z"/>
<path d="M15590 16646 c0 -3 -265 -727 -590 -1611 -324 -884 -590 -1611 -590
-1616 0 -6 81 -8 201 -7 l201 3 162 455 161 455 659 0 659 0 161 -455 162
-455 203 -3 c170 -2 202 0 199 12 -2 7 -268 737 -593 1620 l-590 1606 -202 0
c-112 0 -203 -2 -203 -4z m239 -563 c102 -277 497 -1404 493 -1408 -6 -6
-1062 -7 -1062 -1 0 2 484 1369 515 1454 10 28 34 9 54 -45z"/>
<path d="M18590 15030 l0 -1620 195 0 195 0 0 1276 c0 1191 1 1275 17 1272 9
-2 411 -570 898 -1273 l882 -1270 191 -3 192 -2 0 1620 0 1620 -190 0 -190 0
0 -1275 0 -1275 -22 0 c-19 1 -183 231 -908 1275 l-884 1275 -188 0 -188 0 0
-1620z"/>
</g>
</svg>
